<?xml version="1.0" encoding="UTF-8" standalone="no"?><!DOCTYPE svg PUBLIC "-//W3C//DTD SVG 1.1//EN" "http://www.w3.org/Graphics/SVG/1.1/DTD/svg11.dtd"><svg width="100%" height="100%" viewBox="0 0 240 240" version="1.1" xmlns="http://www.w3.org/2000/svg" xmlns:xlink="http://www.w3.org/1999/xlink" xml:space="preserve" xmlns:serif="http://www.serif.com/" style="fill-rule:evenodd;clip-rule:evenodd;stroke-linecap:round;stroke-miterlimit:5;"><g><circle id="Background" cx="120" cy="120" r="120" style="fill:#fff;"/><circle id="Logo" cx="120" cy="120" r="109.422" style="fill:#4f5668;"/><clipPath id="_clip1"><circle cx="120" cy="120" r="109.422"/></clipPath><g clip-path="url(#_clip1)"><path d="M214.762,65.289c30.196,52.301 12.249,119.277 -40.051,149.473c-52.301,30.196 -119.277,12.249 -149.473,-40.051c-30.196,-52.301 -12.249,-119.277 40.051,-149.473c52.301,-30.196 119.277,-12.249 149.473,40.051Z" style="fill:url(#_Linear2);"/><g><circle cx="69.373" cy="100.03" r="20.807" style="fill:#c7d5e0;fill-opacity:0.8;"/><ellipse cx="173.211" cy="143.298" rx="16.077" ry="16.377" style="fill:#c7d5e0;fill-opacity:0.8;"/><g><path d="M180.681,137.603l-116.322,-48.223l-5.792,13.971l116.322,48.222l5.792,-13.97Z" style="fill:#c7d5e0;"/><path d="M171.929,121.764c-3.199,0.193 -6.267,1.068 -9.056,2.599l-68.13,-27.921c-1.764,-12.221 -12.268,-21.374 -24.686,-21.374c-13.766,0 -24.963,11.196 -24.963,24.962c0,13.766 11.197,24.962 24.963,24.962c4.972,0 9.692,-1.504 13.792,-4.24l68.536,28.091c0.02,0.113 -0.006,0.223 0.027,0.336c2.613,9.276 11.176,15.753 20.822,15.753c11.928,-0 21.634,-9.705 21.634,-21.634c-0,-0.582 -0.041,-1.158 -0.087,-1.731c-0.855,-10.702 -10.022,-20.568 -22.852,-19.803Zm-106.063,-15.573c-3.395,-1.391 -5.025,-5.289 -3.637,-8.68c1.397,-3.392 5.295,-5.029 8.686,-3.638l101.51,41.604c1.647,0.675 2.932,1.95 3.618,3.591c0.685,1.641 0.692,3.448 0.016,5.095c-1.388,3.399 -5.272,5.033 -8.68,3.635l-101.513,-41.607Zm4.191,12.145c-10.092,-0 -18.306,-8.214 -18.306,-18.306c0,-10.091 8.214,-18.305 18.306,-18.305c7.631,-0 14.225,4.742 16.937,11.539l-13.556,-5.555c-6.79,-2.779 -14.581,0.486 -17.37,7.272c-2.779,6.79 0.482,14.581 7.272,17.367l12.398,5.083c-1.814,0.592 -3.721,0.905 -5.681,0.905Zm103.177,39.939c-4.64,0 -8.88,-2.196 -11.666,-5.668l3.288,1.348c1.628,0.666 3.339,0.999 5.049,0.999c1.741,-0 3.485,-0.346 5.143,-1.042c3.278,-1.371 5.827,-3.941 7.172,-7.229c2.786,-6.793 -0.476,-14.585 -7.269,-17.374l-2.31,-0.948c0.2,-0.004 0.393,-0.04 0.593,-0.04c8.257,-0 14.977,6.72 14.977,14.977c-0,8.258 -6.72,14.977 -14.977,14.977Z" style="fill:#fff;fill-rule:nonzero;stroke:#1b2838;stroke-width:1.92px;"/></g><path d="M0,-0l0,240l240,-0l0,-240l-240,-0Z" style="fill:#474747;"/></g></g><path d="M214.762,65.289c30.196,52.301 12.249,119.277 -40.051,149.473c-52.301,30.196 -119.277,12.249 -149.473,-40.051c-30.196,-52.301 -12.249,-119.277 40.051,-149.473c52.301,-30.196 119.277,-12.249 149.473,40.051Z" style="fill:url(#_Linear3);"/><path d="M214.762,65.289c30.196,52.301 12.249,119.277 -40.051,149.473c-52.301,30.196 -119.277,12.249 -149.473,-40.051c-30.196,-52.301 -12.249,-119.277 40.051,-149.473c52.301,-30.196 119.277,-12.249 149.473,40.051Z" style="fill:url(#_Linear4);"/></g><g><g><path d="M61.457,77.069l23.417,23.417l-15.611,-0l0,7.805l23.417,0l23.417,23.418l-46.834,-0l0,7.805l46.834,0l0,23.417l-70.251,0l0,-85.862l15.611,-0Zm10.979,-0l43.661,-0l0,23.417l-20.244,-0l-23.417,-23.417Z" style="fill:#fff;fill-rule:nonzero;"/><clipPath id="_clip5"><path d="M61.457,77.069l23.417,23.417l-15.611,-0l0,7.805l23.417,0l23.417,23.418l-46.834,-0l0,7.805l46.834,0l0,23.417l-70.251,0l0,-85.862l15.611,-0Zm10.979,-0l43.661,-0l0,23.417l-20.244,-0l-23.417,-23.417Z" clip-rule="nonzero"/></clipPath><g clip-path="url(#_clip5)"><path d="M245.607,39.78c39.115,67.748 15.868,154.507 -51.881,193.622c-67.748,39.114 -154.506,15.867 -193.621,-51.881c-39.114,-67.748 -15.867,-154.507 51.881,-193.621c67.748,-39.115 154.507,-15.868 193.621,51.88Z" style="fill:url(#_Linear6);"/></g><path d="M123.912,128.599l-0.009,-51.53l70.251,-0l-0,85.862l-23.417,0l-0,-31.222l-23.417,-0l-0,20.243l-23.408,-23.353Zm-0.009,10.916l23.416,23.416l-23.416,0l-0,-23.416Zm46.834,-31.224l-0,-7.805l-23.417,-0l-0,7.805l23.417,0Z" style="fill:#fff;fill-rule:nonzero;"/><clipPath id="_clip7"><path d="M123.912,128.599l-0.009,-51.53l70.251,-0l-0,85.862l-23.417,0l-0,-31.222l-23.417,-0l-0,20.243l-23.408,-23.353Zm-0.009,10.916l23.416,23.416l-23.416,0l-0,-23.416Zm46.834,-31.224l-0,-7.805l-23.417,-0l-0,7.805l23.417,0Z" clip-rule="nonzero"/></clipPath><g clip-path="url(#_clip7)"><path d="M245.607,39.78c39.115,67.748 15.868,154.507 -51.881,193.622c-67.748,39.114 -154.506,15.867 -193.621,-51.881c-39.114,-67.748 -15.867,-154.507 51.881,-193.621c67.748,-39.115 154.507,-15.868 193.621,51.88Z" style="fill:url(#_Linear8);"/></g></g></g><defs><linearGradient id="_Linear2" x1="0" y1="0" x2="1" y2="0" gradientUnits="userSpaceOnUse" gradientTransform="matrix(109.422,189.524,-189.524,109.422,65.2891,25.238)"><stop offset="0" style="stop-color:#3b4d7b;stop-opacity:1"/><stop offset="1" style="stop-color:#2d3347;stop-opacity:1"/></linearGradient><linearGradient id="_Linear3" x1="0" y1="0" x2="1" y2="0" gradientUnits="userSpaceOnUse" gradientTransform="matrix(109.422,189.524,-189.524,109.422,65.2891,25.238)"><stop offset="0" style="stop-color:#f3803e;stop-opacity:1"/><stop offset="1" style="stop-color:#ec5077;stop-opacity:1"/></linearGradient><linearGradient id="_Linear4" x1="0" y1="0" x2="1" y2="0" gradientUnits="userSpaceOnUse" gradientTransform="matrix(109.422,189.524,-189.524,109.422,65.2891,25.238)"><stop offset="0" style="stop-color:#1f1f1f;stop-opacity:1"/><stop offset="1" style="stop-color:#2b2b2b;stop-opacity:1"/></linearGradient><linearGradient id="_Linear6" x1="0" y1="0" x2="1" y2="0" gradientUnits="userSpaceOnUse" gradientTransform="matrix(141.741,245.502,-245.502,141.741,51.9859,-12.1003)"><stop offset="0" style="stop-color:#f3803e;stop-opacity:1"/><stop offset="1" style="stop-color:#ec5077;stop-opacity:1"/></linearGradient><linearGradient id="_Linear8" x1="0" y1="0" x2="1" y2="0" gradientUnits="userSpaceOnUse" gradientTransform="matrix(141.741,245.502,-245.502,141.741,51.9859,-12.1003)"><stop offset="0" style="stop-color:#f3803e;stop-opacity:1"/><stop offset="1" style="stop-color:#ec5077;stop-opacity:1"/></linearGradient></defs></svg>